<?xml version="1.0" encoding="utf-8"?>
<!-- Generator: Adobe Illustrator 24.1.0, SVG Export Plug-In . SVG Version: 6.00 Build 0)  -->
<svg version="1.1" id="Calque_1" xmlns="http://www.w3.org/2000/svg" xmlns:xlink="http://www.w3.org/1999/xlink" x="0px" y="0px"
	 viewBox="0 0 1494.8 318.3" style="enable-background:new 0 0 1494.8 318.3;" xml:space="preserve">
<style type="text/css">
	.st0{fill:#040C35;}
	.st1{font-family:'Nunito-Black';}
	.st2{font-size:303px;}
	.st3{fill:none;}
	.st4{opacity:0.8;}
	.st5{fill:url(#SVGID_1_);}
	.st6{fill:#FD746C;}
</style>
<text transform="matrix(1 0 0 1 324.7 265.3118)" class="st0 st1 st2">Xevlabs</text>
<rect x="685.7" y="-87.1" class="st3" width="2.7" height="1.3"/>
<g>
	<g class="st4">
		
			<linearGradient id="SVGID_1_" gradientUnits="userSpaceOnUse" x1="98.8791" y1="209.6837" x2="292.1" y2="209.6837" gradientTransform="matrix(1 0 0 -1 0 368.8001)">
			<stop  offset="0.1268" style="stop-color:#FD746C"/>
			<stop  offset="1" style="stop-color:#FF9068;stop-opacity:0.5"/>
		</linearGradient>
		<path class="st5" d="M280.6,285.3c15.4-15.4,15.4-40.3,0-55.6l-70.5-70.5l70.5-70.5c15.4-15.4,15.4-40.3,0-55.6
			c-7.7-7.7-17.7-11.5-27.8-11.5s-20.1,3.8-27.8,11.5L98.9,159.2L225,285.3C240.3,300.6,265.2,300.6,280.6,285.3z"/>
	</g>
	<g>
		<path class="st6" d="M27.2,33.1c-15.4,15.4-15.4,40.3,0,55.6l70.5,70.5l-70.5,70.5c-15.4,15.4-15.4,40.3,0,55.6
			C34.9,293,45,296.9,55,296.9s20.1-3.8,27.8-11.5L209,159.3L82.9,33.1C67.5,17.7,42.6,17.7,27.2,33.1z"/>
	</g>
</g>
</svg>
